# xmcd
#
# Track frame offsets:
#	150
#	25524
#	45398
#	67102
#	87856
#	111069
#	129451
#	146463
#	166872
#	184480
#	207810
#
# Disc length: 3135 seconds
#
# Revision: 0
# Processed by: cddbd v1.5PL3 Copyright (c) Steve Scherf et al.
# Submitted via: MusicWizard 7.0.2
#
DISCID=8f0c3d0b
DTITLE=Sara Evans - Born To Fly
DYEAR=2000
DGENRE=Country
TTITLE0=Born To Fly
TTITLE1=Saints and Angels
TTITLE2=I Could Not Ask For More
TTITLE3=I Keep Looking
TTITLE4=I Learned That From You
TTITLE5=Let's Dance
TTITLE6=Why Should I Care
TTITLE7=Four-Thirty
TTITLE8=Show Me The Way To Your Heart
TTITLE9=You Don't
TTITLE10=Every Little Kiss
EXTD=(c)2000 RCA 07863-67964-2\n
EXTT0=
EXTT1=
EXTT2=
EXTT3=
EXTT4=
EXTT5=
EXTT6=
EXTT7=
EXTT8=
EXTT9=
EXTT10=
PLAYORDER=
